<svg id="Color" enable-background="new 0 0 24 24" height="512" viewBox="0 0 24 24" width="512" xmlns="http://www.w3.org/2000/svg"><path d="m22.25 0h-12.5c-.965 0-1.75.785-1.75 1.75v2.5c0 .965.785 1.75 1.75 1.75h12.5c.965 0 1.75-.785 1.75-1.75v-2.5c0-.965-.785-1.75-1.75-1.75z" fill="#03a9f4"/><circle cx="3" cy="3" fill="#03a9f4" r="3"/><path d="m10.93 9.31c-.13-.54-.52-.97-1.02-1.18-.2-.08-.43-.13-.66-.13h-7.5c-.23 0-.46.05-.66.13-.5.21-.89.64-1.02 1.18-.05.14-.07.29-.07.44v12.5c0 .15.02.3.07.44.13.54.52.97 1.02 1.18.2.08.43.13.66.13h7.5c.23 0 .46-.05.66-.13.5-.21.89-.64 1.02-1.18.05-.14.07-.29.07-.44v-12.5c0-.15-.02-.3-.07-.44z" fill="#cfd8dc"/><path d="m6.41 16 3.09-4.57 1.43-2.12c-.13-.54-.52-.97-1.02-1.18l-.92 1.37-3.49 5.16-3.49-5.16-.92-1.37c-.5.21-.89.64-1.02 1.18l1.43 2.12 3.09 4.57-3.09 4.57-1.43 2.12c.13.54.52.97 1.02 1.18l.92-1.37 3.49-5.16 3.49 5.16.92 1.37c.5-.21.89-.64 1.02-1.18l-1.43-2.12z" fill="#90a4ae"/><path d="m23.93 9.31c-.13-.54-.52-.97-1.02-1.18-.2-.08-.43-.13-.66-.13h-7.5c-.23 0-.46.05-.66.13-.5.21-.89.64-1.02 1.18-.05.14-.07.29-.07.44v12.5c0 .15.02.3.07.44.13.54.52.97 1.02 1.18.2.08.43.13.66.13h7.5c.23 0 .46-.05.66-.13.5-.21.89-.64 1.02-1.18.05-.14.07-.29.07-.44v-12.5c0-.15-.02-.3-.07-.44z" fill="#cfd8dc"/><path d="m19.41 16 3.09-4.57 1.43-2.12c-.13-.54-.52-.97-1.02-1.18l-.92 1.37-3.49 5.16-3.49-5.16-.92-1.37c-.5.21-.89.64-1.02 1.18l1.43 2.12 3.09 4.57-3.09 4.57-1.43 2.12c.13.54.52.97 1.02 1.18l.92-1.37 3.49-5.16 3.49 5.16.92 1.37c.5-.21.89-.64 1.02-1.18l-1.43-2.12z" fill="#90a4ae"/><g><g><path d="m.07 9.309c-.05.141-.07.291-.07.441v12.5c0 .151.02.3.07.439.13.541.52.971 1.02 1.181.2.08.43.13.66.13h3.75v-6.66l-3.49 5.16-.92 1.37c-.5-.21-.89-.64-1.02-1.181l1.43-2.119 3.09-4.57-3.09-4.57zm5.43-1.309h-3.75c-.23 0-.46.05-.66.13l.92 1.37 3.49 5.16z" fill="#b4bcc0"/><path d="m1.09 8.13c-.5.21-.89.64-1.02 1.179l1.43 2.12 3.09 4.571-3.09 4.57-1.43 2.119c.13.541.52.971 1.02 1.181l.92-1.37 3.49-5.16v-2.68l-3.49-5.16z" fill="#7d8f97"/></g><g><path d="m13.07 9.309c-.05.141-.07.291-.07.441v12.5c0 .151.02.3.07.439.13.541.52.971 1.02 1.181.2.08.429.13.66.13h3.75v-6.66l-3.49 5.16-.92 1.37c-.5-.21-.89-.64-1.02-1.181l1.43-2.119 3.09-4.57-3.09-4.57zm5.43-1.309h-3.75c-.231 0-.46.05-.66.13l.92 1.37 3.49 5.16z" fill="#b4bcc0"/><path d="m14.09 8.13c-.5.21-.89.64-1.02 1.179l1.43 2.12 3.09 4.571-3.09 4.57-1.43 2.119c.13.541.52.971 1.02 1.181l.92-1.37 3.49-5.16v-2.68l-3.49-5.16z" fill="#7d8f97"/></g></g><g fill="#0393d4"><path d="m3 0c-1.654 0-3 1.346-3 3s1.346 3 3 3z"/><path d="m16.501 0h-6.751c-.965 0-1.75.785-1.75 1.75v2.5c0 .965.785 1.75 1.75 1.75h6.751z"/></g></svg>